<svg fill="#000000" xmlns="http://www.w3.org/2000/svg"  viewBox="0 0 32 32" width="256px" height="256px"><path d="M11.625,18.598c-0.016,0.04-0.071,0.048-0.119,0.024c-0.056-0.032-0.079-0.079-0.063-0.111 c0.016-0.032,0.063-0.04,0.119-0.024C11.618,18.518,11.641,18.566,11.625,18.598z"/><path d="M11.911,18.915c-0.04,0.04-0.103,0.016-0.151-0.024c-0.048-0.056-0.056-0.119-0.016-0.151 c0.04-0.04,0.103-0.016,0.151,0.024C11.943,18.82,11.951,18.883,11.911,18.915z"/><path d="M12.189,19.328c-0.04,0.032-0.111,0-0.159-0.063c-0.048-0.063-0.048-0.135,0-0.167c0.048-0.032,0.119-0.008,0.159,0.056 C12.236,19.216,12.236,19.296,12.189,19.328z"/><path d="M12.577,19.716c-0.04,0.048-0.119,0.04-0.182-0.024c-0.063-0.056-0.079-0.135-0.04-0.175 c0.04-0.048,0.119-0.04,0.182,0.024C12.593,19.597,12.617,19.684,12.577,19.716z"/><path d="M13.101,19.946c-0.016,0.055-0.103,0.087-0.174,0.055c-0.079-0.016-0.135-0.079-0.119-0.135s0.103-0.079,0.174-0.063 C13.069,19.827,13.125,19.891,13.101,19.946z"/><path d="M13.688,19.994c0,0.056-0.063,0.103-0.151,0.103c-0.095,0.008-0.159-0.04-0.159-0.103c0-0.056,0.063-0.103,0.151-0.103 C13.609,19.883,13.688,19.93,13.688,19.994z"/><path d="M14.219,19.907c0.016,0.056-0.04,0.111-0.127,0.127c-0.079,0.016-0.159-0.016-0.167-0.071 c-0.008-0.063,0.048-0.119,0.127-0.135C14.132,19.819,14.211,19.851,14.219,19.907z"/><path d="M23,15.885c0,3.133-1.912,5.814-4.727,6.758c-0.357,0.063-0.484-0.159-0.484-0.341c0-0.23,0.008-1.412,0.008-2.364 c0-0.666-0.222-1.087-0.484-1.309c1.578-0.174,3.244-0.389,3.244-3.117c0-0.777-0.278-1.166-0.73-1.666 c0.071-0.182,0.317-0.936-0.071-1.92c-0.595-0.182-1.951,0.761-1.951,0.761c-0.563-0.151-1.174-0.238-1.777-0.238 s-1.214,0.087-1.777,0.238c0,0-1.356-0.944-1.951-0.761c-0.389,0.976-0.143,1.737-0.071,1.92c-0.452,0.5-0.666,0.888-0.666,1.666 c0,2.713,1.594,2.943,3.173,3.117c-0.206,0.182-0.389,0.5-0.452,0.952c-0.405,0.182-1.444,0.5-2.062-0.595 c-0.389-0.674-1.087-0.73-1.087-0.73c-0.69-0.008-0.048,0.436-0.048,0.436c0.46,0.214,0.785,1.031,0.785,1.031 c0.412,1.269,2.395,0.841,2.395,0.841c0,0.595,0.008,1.563,0.008,1.737c0,0.182-0.127,0.405-0.492,0.341 C10.967,21.699,9,19.018,9,15.885C9,11.975,11.99,9,15.909,9S23,11.975,23,15.885z"/><g><path d="M5,5v22h22V5H5z M7,7h18v18H7V7z"/></g></svg>